<?xml version="1.0" encoding="UTF-8"?>
<svg version="1.1" xmlns="http://www.w3.org/2000/svg" width="512" height="512">
<path d="M0 0 C0.80598633 0.20399414 1.61197266 0.40798828 2.44238281 0.61816406 C12.83664604 3.33642019 22.86513415 6.77287172 32.57421875 11.38671875 C35.83791689 12.99351921 35.83791689 12.99351921 38.70703125 13.95703125 C45.38358948 16.62992935 47.54930794 22.02137273 50.31860352 28.27026367 C58.3449722 47.44037614 60.34512125 64.12878159 52.52734375 83.68359375 C42.96382826 103.96367271 25.41806704 121.48989752 7 134 C6.32839844 134.45648926 5.65679687 134.91297852 4.96484375 135.38330078 C-24.70296217 155.27904093 -56.40389952 167.45548938 -90.61911011 176.8427887 C-121.54440805 185.33154639 -151.42434283 197.89652507 -178 216 C-178.57314941 216.38768555 -179.14629883 216.77537109 -179.73681641 217.17480469 C-199.58136025 230.68480638 -217.73301363 246.87133472 -231 267 C-231.37882324 267.57186035 -231.75764648 268.1437207 -232.14794922 268.73291016 C-241.52646952 283.19059351 -245.56440039 299.12172201 -248 316 C-251.67919949 312.76230444 -253.76177218 309.09869549 -255.875 304.75 C-256.22014648 304.04544678 -256.56529297 303.34089355 -256.92089844 302.61499023 C-267.73799039 280.10273064 -272.44347795 256.62703599 -272.375 231.6875 C-272.37412384 230.90208832 -272.37324768 230.11667664 -272.37234497 229.3074646 C-272.18343322 177.63911973 -251.37877797 128.74206119 -219 89 C-218.5575293 88.45456543 -218.11505859 87.90913086 -217.65917969 87.34716797 C-206.4463919 73.63343069 -194.06500571 60.80058131 -180 50 C-178.72577099 48.98667159 -177.45239811 47.97226607 -176.1796875 46.95703125 C-166.25506541 39.11501 -155.98322498 32.26604048 -145 26 C-143.89930176 25.36433105 -143.89930176 25.36433105 -142.77636719 24.71582031 C-122.30995394 13.0117308 -100.03278147 4.91483927 -77 0 C-75.792229 -0.26466064 -75.792229 -0.26466064 -74.56005859 -0.53466797 C-51.44651778 -5.3581556 -22.95650936 -5.86190339 0 0 Z " fill="#000000" transform="translate(336,67)"/>
<path d="M0 0 C3.67895709 3.23748224 5.7626575 6.90105956 7.875 11.25 C8.39380737 12.31335571 8.39380737 12.31335571 8.9230957 13.39819336 C29.84511286 57.07308533 28.32648238 107.78865499 13 153 C3.16997936 180.06958331 -10.82057439 204.686377 -29 227 C-29.4424707 227.54543457 -29.88494141 228.09086914 -30.34082031 228.65283203 C-41.5536081 242.36656931 -53.93499429 255.19941869 -68 266 C-69.27422901 267.01332841 -70.54760189 268.02773393 -71.8203125 269.04296875 C-81.74288854 276.8833733 -92.01172916 283.74607471 -103 290 C-103.74975098 290.42909668 -104.49950195 290.85819336 -105.27197266 291.30029297 C-136.54562891 308.99768448 -171.53748063 319.15366005 -207.49829102 319.24023438 C-209.90091757 319.24985354 -212.30265446 319.28091189 -214.70507812 319.3125 C-240.30897822 319.48662149 -269.47295384 313.57167014 -291 299 C-295.05772088 294.88194126 -296.96855143 289.95563006 -299.125 284.6875 C-299.47175781 283.87087891 -299.81851563 283.05425781 -300.17578125 282.21289062 C-306.51446145 266.97334341 -307.48628322 250.87258599 -301.48046875 235.328125 C-297.40986435 226.17732038 -292.5389443 218.58662046 -286 211 C-285.31035156 210.18789063 -284.62070312 209.37578125 -283.91015625 208.5390625 C-252.50572513 172.53470567 -207.12973054 153.60485072 -162.125 141.0625 C-118.87539993 128.99580925 -78.95940011 110.75915852 -45 81 C-44.1028125 80.2265625 -43.205625 79.453125 -42.28125 78.65625 C-18.57673665 57.87821978 -3.33878012 31.44433219 0 0 Z " fill="#000000" transform="translate(424,129)"/>
</svg>
